<svg width="42" height="35" viewBox="0 0 42 35" fill="none" xmlns="http://www.w3.org/2000/svg">
<g clip-path="url(#clip0_81_28254)">
<path d="M23.1901 19.81V23.51C23.1901 24.03 22.7701 24.46 22.2401 24.46H3.0501C2.5301 24.46 2.1001 24.04 2.1001 23.51V19.5C2.1001 18.98 2.5201 18.55 3.0501 18.55H20.5301" stroke="#688CBA" stroke-width="1.5" stroke-linejoin="round"/>
<path d="M40.8298 14C40.8298 16.53 38.7798 18.59 36.2398 18.59C35.4898 18.59 34.7898 18.41 34.1798 18.09C33.2198 19.5 31.5998 20.42 29.7498 20.42C28.4198 20.42 27.2198 19.94 26.2798 19.14C25.5698 19.5 24.7698 19.69 23.9298 19.69C20.9698 19.69 18.5698 17.29 18.5698 14.33C18.5698 11.56 20.6598 9.28 23.3498 8.99C23.2598 8.55 23.2098 8.1 23.2098 7.63C23.2098 3.83 26.2898 0.75 30.0898 0.75C33.8898 0.75 36.9698 3.83 36.9698 7.63C36.9698 8.26 36.8898 8.86 36.7198 9.43C39.0198 9.68 40.8298 11.62 40.8298 14Z" stroke="#688CBA" stroke-width="1.5" stroke-linejoin="round"/>
<path d="M38.7 34.1H0" stroke="#688CBA" stroke-width="1.5" stroke-linejoin="round"/>
<path d="M25.7598 12.58L29.6998 16.3" stroke="#688CBA" stroke-width="1.5" stroke-linejoin="round"/>
<path d="M29.7002 12.56L33.4302 8.60999" stroke="#688CBA" stroke-width="1.5" stroke-linejoin="round"/>
<path d="M22.4498 27.9V29.59H2.7498V27.9H22.4498ZM22.4498 26.45H2.7498C1.9498 26.45 1.2998 27.1 1.2998 27.9V29.59C1.2998 30.39 1.9498 31.04 2.7498 31.04H22.4498C23.2498 31.04 23.8998 30.39 23.8998 29.59V27.9C23.8998 27.1 23.2498 26.45 22.4498 26.45Z" fill="#688CBA"/>
<path d="M6.2998 27.75V24.45" stroke="#688CBA" stroke-width="1.5" stroke-linejoin="round"/>
<path d="M19.3501 27.75V24.45" stroke="#688CBA" stroke-width="1.5" stroke-linejoin="round"/>
<path d="M6.2998 34.1V29.65" stroke="#688CBA" stroke-width="1.5" stroke-linejoin="round"/>
<path d="M19.1802 34.1V29.65" stroke="#688CBA" stroke-width="1.5" stroke-linejoin="round"/>
<path d="M29.7002 34.01V6.97" stroke="#688CBA" stroke-width="1.5" stroke-linejoin="round"/>
<path d="M23.1901 19.81V23.51C23.1901 24.03 22.7701 24.46 22.2401 24.46H3.0501C2.5301 24.46 2.1001 24.04 2.1001 23.51V19.5C2.1001 18.98 2.5201 18.55 3.0501 18.55H20.5301" stroke="#688CBA" stroke-width="1.5" stroke-linejoin="round"/>
<path d="M40.8298 14C40.8298 16.53 38.7798 18.59 36.2398 18.59C35.4898 18.59 34.7898 18.41 34.1798 18.09C33.2198 19.5 31.5998 20.42 29.7498 20.42C28.4198 20.42 27.2198 19.94 26.2798 19.14C25.5698 19.5 24.7698 19.69 23.9298 19.69C20.9698 19.69 18.5698 17.29 18.5698 14.33C18.5698 11.56 20.6598 9.28 23.3498 8.99C23.2598 8.55 23.2098 8.1 23.2098 7.63C23.2098 3.83 26.2898 0.75 30.0898 0.75C33.8898 0.75 36.9698 3.83 36.9698 7.63C36.9698 8.26 36.8898 8.86 36.7198 9.43C39.0198 9.68 40.8298 11.62 40.8298 14Z" stroke="#688CBA" stroke-width="1.5" stroke-linejoin="round"/>
<path d="M38.7 34.1H0" stroke="#688CBA" stroke-width="1.5" stroke-linejoin="round"/>
<path d="M26.2747 12.0346C25.9735 11.7503 25.4988 11.7639 25.2144 12.0651C24.9301 12.3663 24.9437 12.841 25.2449 13.1253L26.2747 12.0346ZM25.2449 13.1253L29.1849 16.8453L30.2147 15.7546L26.2747 12.0346L25.2449 13.1253Z" fill="#688CBA"/>
<path d="M29.7002 12.56L33.4302 8.60999" stroke="#688CBA" stroke-width="1.5" stroke-linecap="round" stroke-linejoin="round"/>
<path d="M22.4498 27.9V29.59H2.7498V27.9H22.4498ZM22.4498 26.45H2.7498C1.9498 26.45 1.2998 27.1 1.2998 27.9V29.59C1.2998 30.39 1.9498 31.04 2.7498 31.04H22.4498C23.2498 31.04 23.8998 30.39 23.8998 29.59V27.9C23.8998 27.1 23.2498 26.45 22.4498 26.45Z" fill="#688CBA"/>
<path d="M6.2998 27.75V24.45" stroke="#688CBA" stroke-width="1.5" stroke-linejoin="round"/>
<path d="M19.3501 27.75V24.45" stroke="#688CBA" stroke-width="1.5" stroke-linejoin="round"/>
<path d="M6.2998 34.1V29.65" stroke="#688CBA" stroke-width="1.5" stroke-linejoin="round"/>
<path d="M19.1802 34.1V29.65" stroke="#688CBA" stroke-width="1.5" stroke-linejoin="round"/>
<path d="M29.7002 34.01V6.97" stroke="#688CBA" stroke-width="1.5" stroke-linecap="round" stroke-linejoin="round"/>
</g>
<defs>
<clipPath id="clip0_81_28254">
<rect width="41.58" height="34.85" fill="white"/>
</clipPath>
</defs>
</svg>
