<svg width="32" height="37" viewBox="0 0 32 37" fill="none" xmlns="http://www.w3.org/2000/svg">
<g clip-path="url(#clip0_81_28304)">
<path d="M23.2904 30.36V22C23.2904 18.96 20.8304 16.5 17.7904 16.5C15.1304 16.5 12.9204 18.38 12.4004 20.88" stroke="#688CBA" stroke-width="1.5" stroke-linejoin="round"/>
<path d="M17.7901 16.5C20.1262 16.5 22.0201 14.6062 22.0201 12.27C22.0201 9.93384 20.1262 8.04001 17.7901 8.04001C15.4539 8.04001 13.5601 9.93384 13.5601 12.27C13.5601 14.6062 15.4539 16.5 17.7901 16.5Z" stroke="#688CBA" stroke-width="1.5" stroke-linejoin="round"/>
<path d="M15.1802 30.39V29.89C15.1802 27.84 13.5202 26.17 11.4602 26.17C9.40023 26.17 7.74023 27.83 7.74023 29.89V30.39" stroke="#688CBA" stroke-width="1.5" stroke-linejoin="round"/>
<path d="M11.4605 26.17C12.9682 26.17 14.1905 24.9478 14.1905 23.44C14.1905 21.9323 12.9682 20.71 11.4605 20.71C9.95273 20.71 8.73047 21.9323 8.73047 23.44C8.73047 24.9478 9.95273 26.17 11.4605 26.17Z" stroke="#688CBA" stroke-width="1.5" stroke-linejoin="round"/>
<path d="M1.97021 30.36V0.75H29.0602V30.36" stroke="#688CBA" stroke-width="1.5" stroke-linejoin="round"/>
<path d="M25.8499 4.05V29.54L5.18992 29.51V4.05H25.8499ZM27.3699 2.53H3.66992V31.03L27.3699 31.06V2.53Z" fill="#688CBA"/>
<path d="M17.63 33.08H0.75V30.36H30.28V33.08H17.63Z" stroke="#688CBA" stroke-width="1.5" stroke-linejoin="round"/>
<path d="M3.66992 33.69V35.68H27.3599V33.08" stroke="#688CBA" stroke-width="1.5" stroke-linejoin="round"/>
<path d="M23.2904 30.36V22C23.2904 18.96 20.8304 16.5 17.7904 16.5C15.1304 16.5 12.9204 18.38 12.4004 20.88" stroke="#688CBA" stroke-width="1.5" stroke-linejoin="round"/>
<path d="M17.7901 16.5C20.1262 16.5 22.0201 14.6062 22.0201 12.27C22.0201 9.93384 20.1262 8.04001 17.7901 8.04001C15.4539 8.04001 13.5601 9.93384 13.5601 12.27C13.5601 14.6062 15.4539 16.5 17.7901 16.5Z" stroke="#688CBA" stroke-width="1.5" stroke-linejoin="round"/>
<path d="M15.1802 30.39V29.89C15.1802 27.84 13.5202 26.17 11.4602 26.17C9.40023 26.17 7.74023 27.83 7.74023 29.89V30.39" stroke="#688CBA" stroke-width="1.5" stroke-linejoin="round"/>
<path d="M11.4605 26.17C12.9682 26.17 14.1905 24.9478 14.1905 23.44C14.1905 21.9323 12.9682 20.71 11.4605 20.71C9.95273 20.71 8.73047 21.9323 8.73047 23.44C8.73047 24.9478 9.95273 26.17 11.4605 26.17Z" stroke="#688CBA" stroke-width="1.5" stroke-linejoin="round"/>
<path d="M1.97021 30.36V0.75H29.0602V30.36" stroke="#688CBA" stroke-width="1.5" stroke-linejoin="round"/>
<path d="M25.8499 4.05V29.54L5.18992 29.51V4.05H25.8499ZM27.3699 2.53H3.66992V31.03L27.3699 31.06V2.53Z" fill="#688CBA"/>
<path d="M17.63 33.08H0.75V30.36H30.28V33.08H17.63Z" stroke="#688CBA" stroke-width="1.5" stroke-linejoin="round"/>
<path d="M3.66992 33.69V35.68H27.3599V33.08" stroke="#688CBA" stroke-width="1.5" stroke-linejoin="round"/>
</g>
<defs>
<clipPath id="clip0_81_28304">
<rect width="31.03" height="36.43" fill="white"/>
</clipPath>
</defs>
</svg>
