<svg width="35" height="35" viewBox="0 0 35 35" fill="none" xmlns="http://www.w3.org/2000/svg">
<g clip-path="url(#clip0_81_28323)">
<path d="M26.22 2.60001V33.43H12.98V8.38001L18.82 5.83001L26.22 2.60001Z" stroke="#688CBA" stroke-width="1.5" stroke-linejoin="round"/>
<path d="M12.9701 11.43H3.33008V33.44H12.9701V11.43Z" stroke="#688CBA" stroke-width="1.5" stroke-linejoin="round"/>
<path d="M18.8201 0.75V5.83L12.9801 8.38V11.43H7.8501V0.75H18.8201Z" stroke="#688CBA" stroke-width="1.5" stroke-linejoin="round"/>
<path d="M31.1702 27.88C32.6724 27.88 33.8902 26.6622 33.8902 25.16C33.8902 23.6578 32.6724 22.44 31.1702 22.44C29.668 22.44 28.4502 23.6578 28.4502 25.16C28.4502 26.6622 29.668 27.88 31.1702 27.88Z" stroke="#688CBA" stroke-width="1.5" stroke-linejoin="round"/>
<path d="M31.1702 22.44C32.6724 22.44 33.8902 21.2222 33.8902 19.72C33.8902 18.2178 32.6724 17 31.1702 17C29.668 17 28.4502 18.2178 28.4502 19.72C28.4502 21.2222 29.668 22.44 31.1702 22.44Z" stroke="#688CBA" stroke-width="1.5" stroke-linejoin="round"/>
<path d="M31.1699 33.44V27.87" stroke="#688CBA" stroke-width="1.5" stroke-linejoin="round"/>
<path d="M34.56 33.44H0" stroke="#688CBA" stroke-width="1.5" stroke-linejoin="round"/>
<path d="M8.16016 4.48999H18.8202" stroke="#688CBA" stroke-width="1.5" stroke-linejoin="round"/>
<path d="M17.2798 12.06H21.8798" stroke="#688CBA" stroke-width="1.5" stroke-linejoin="round"/>
<path d="M17.2798 15.84H21.8798" stroke="#688CBA" stroke-width="1.5" stroke-linejoin="round"/>
<path d="M6.6499 15.84H9.4399" stroke="#688CBA" stroke-width="1.5" stroke-linejoin="round"/>
<path d="M6.6499 19.62H9.4399" stroke="#688CBA" stroke-width="1.5" stroke-linejoin="round"/>
<path d="M6.6499 23.4H9.4399" stroke="#688CBA" stroke-width="1.5" stroke-linejoin="round"/>
<path d="M6.6499 27.18H9.4399" stroke="#688CBA" stroke-width="1.5" stroke-linejoin="round"/>
<path d="M17.2798 19.62H21.8798" stroke="#688CBA" stroke-width="1.5" stroke-linejoin="round"/>
<path d="M17.2798 23.4H21.8798" stroke="#688CBA" stroke-width="1.5" stroke-linejoin="round"/>
<path d="M17.3101 33.43V28.43H21.8801V33.43" stroke="#688CBA" stroke-width="1.5" stroke-linejoin="round"/>
<path d="M26.22 2.60001V33.43H12.98V8.38001L18.82 5.83001L26.22 2.60001Z" stroke="#688CBA" stroke-width="1.5" stroke-linejoin="round"/>
<path d="M12.9701 11.43H3.33008V33.44H12.9701V11.43Z" stroke="#688CBA" stroke-width="1.5" stroke-linejoin="round"/>
<path d="M18.8201 0.75V5.83L12.9801 8.38V11.43H7.8501V0.75H18.8201Z" stroke="#688CBA" stroke-width="1.5" stroke-linejoin="round"/>
<path d="M31.1702 27.88C32.6724 27.88 33.8902 26.6622 33.8902 25.16C33.8902 23.6578 32.6724 22.44 31.1702 22.44C29.668 22.44 28.4502 23.6578 28.4502 25.16C28.4502 26.6622 29.668 27.88 31.1702 27.88Z" stroke="#688CBA" stroke-width="1.5" stroke-linejoin="round"/>
<path d="M31.1702 22.44C32.6724 22.44 33.8902 21.2222 33.8902 19.72C33.8902 18.2178 32.6724 17 31.1702 17C29.668 17 28.4502 18.2178 28.4502 19.72C28.4502 21.2222 29.668 22.44 31.1702 22.44Z" stroke="#688CBA" stroke-width="1.5" stroke-linejoin="round"/>
<path d="M31.1699 33.44V27.87" stroke="#688CBA" stroke-width="1.5" stroke-linejoin="round"/>
<path d="M34.56 33.44H0" stroke="#688CBA" stroke-width="1.5" stroke-linejoin="round"/>
<path d="M8.16016 4.48999H18.8202" stroke="#688CBA" stroke-width="1.5" stroke-linejoin="round"/>
<path d="M17.2798 12.06H21.8798" stroke="#688CBA" stroke-width="1.5" stroke-linejoin="round"/>
<path d="M17.2798 15.84H21.8798" stroke="#688CBA" stroke-width="1.5" stroke-linejoin="round"/>
<path d="M6.6499 15.84H9.4399" stroke="#688CBA" stroke-width="1.5" stroke-linejoin="round"/>
<path d="M6.6499 19.62H9.4399" stroke="#688CBA" stroke-width="1.5" stroke-linejoin="round"/>
<path d="M6.6499 23.4H9.4399" stroke="#688CBA" stroke-width="1.5" stroke-linejoin="round"/>
<path d="M6.6499 27.18H9.4399" stroke="#688CBA" stroke-width="1.5" stroke-linejoin="round"/>
<path d="M17.2798 19.62H21.8798" stroke="#688CBA" stroke-width="1.5" stroke-linejoin="round"/>
<path d="M17.2798 23.4H21.8798" stroke="#688CBA" stroke-width="1.5" stroke-linejoin="round"/>
<path d="M17.3101 33.43V28.43H21.8801V33.43" stroke="#688CBA" stroke-width="1.5" stroke-linejoin="round"/>
</g>
<defs>
<clipPath id="clip0_81_28323">
<rect width="34.63" height="34.19" fill="white"/>
</clipPath>
</defs>
</svg>
