<svg width="37" height="35" viewBox="0 0 37 35" fill="none" xmlns="http://www.w3.org/2000/svg">
<g clip-path="url(#clip0_81_28277)">
<path d="M0 33.41H37" stroke="#688CBA" stroke-width="1.5" stroke-linejoin="round"/>
<path d="M6.60986 26.6L12.8899 13.98C13.0499 13.65 13.4699 13.56 13.7599 13.79L15.1199 14.86L17.3499 10C17.7399 9.09 19.0299 9.07 19.4399 9.97L24.6699 21.37L24.7099 21.45C24.8099 21.29 24.8799 21.17 24.8799 21.17C25.3199 20.46 26.3499 20.44 26.8099 21.13L34.9899 33.39" stroke="#688CBA" stroke-width="1.5" stroke-linejoin="round"/>
<path d="M23.0402 24.15L21.9602 25.9C21.4802 26.68 20.7502 27.27 19.8902 27.57L14.4902 29.5C13.6302 29.81 12.8402 30.27 12.1502 30.86L9.18018 33.4" stroke="#688CBA" stroke-width="1.5" stroke-linejoin="round"/>
<path d="M1.74023 33.41L4.21023 28.75C4.49023 28.21 4.92023 27.76 5.43023 27.44L10.4102 24.34C11.1102 23.91 11.6502 23.27 11.9802 22.52C11.9802 22.52 13.1902 19.7 13.7502 18.4C13.7902 18.46 13.8102 18.49 13.8102 18.49L16.0202 21.55C16.5202 22.25 17.6002 22.12 17.9302 21.33L18.8202 19.2C19.1402 18.43 20.1702 18.28 20.7002 18.93C21.1102 19.44 21.8802 19.48 22.3402 19.02L23.0102 18.35" stroke="#688CBA" stroke-width="1.5" stroke-linejoin="round"/>
<path d="M18.3599 0V9.11" stroke="#688CBA" stroke-width="1.5" stroke-linejoin="round"/>
<path d="M18.3599 4.19H23.5199L22.3699 2.47L23.5199 0.75H18.3599V4.19Z" stroke="#688CBA" stroke-width="1.5" stroke-linejoin="round"/>
<path d="M0 33.41H37" stroke="#688CBA" stroke-width="1.5" stroke-linecap="round" stroke-linejoin="round"/>
<path d="M6.60986 26.6L12.8899 13.98C13.0499 13.65 13.4699 13.56 13.7599 13.79L15.1199 14.86L17.3499 10C17.7399 9.09 19.0299 9.07 19.4399 9.97L24.6699 21.37L24.7099 21.45C24.8099 21.29 24.8799 21.17 24.8799 21.17C25.3199 20.46 26.3499 20.44 26.8099 21.13L34.9899 33.39" stroke="#688CBA" stroke-width="1.5" stroke-linejoin="round"/>
<path d="M23.6784 24.5439C23.896 24.1914 23.7866 23.7293 23.4341 23.5118C23.0816 23.2942 22.6195 23.4036 22.4019 23.7561L23.6784 24.5439ZM21.9602 25.9L21.3219 25.5061L21.3214 25.5069L21.9602 25.9ZM19.8902 27.57L19.6431 26.8618L19.6378 26.8637L19.8902 27.57ZM14.4902 29.5L14.2378 28.7937L14.2358 28.7944L14.4902 29.5ZM12.1502 30.86L11.6628 30.29L11.6627 30.29L12.1502 30.86ZM22.4019 23.7561L21.3219 25.5061L22.5984 26.2939L23.6784 24.5439L22.4019 23.7561ZM21.3214 25.5069C20.9309 26.1415 20.3385 26.6193 19.6431 26.8618L20.1372 28.2781C21.1618 27.9207 22.0294 27.2185 22.5989 26.2931L21.3214 25.5069ZM19.6378 26.8637L14.2378 28.7937L14.7426 30.2062L20.1426 28.2762L19.6378 26.8637ZM14.2358 28.7944C13.2906 29.1352 12.4216 29.6411 11.6628 30.29L12.6376 31.43C13.2587 30.8989 13.9697 30.4848 14.7445 30.2056L14.2358 28.7944ZM11.6627 30.29L8.69271 32.83L9.66764 33.97L12.6376 31.43L11.6627 30.29Z" fill="#688CBA"/>
<path d="M1.74023 33.41L4.21023 28.75C4.49023 28.21 4.92023 27.76 5.43023 27.44L10.4102 24.34C11.1102 23.91 11.6502 23.27 11.9802 22.52C11.9802 22.52 13.1902 19.7 13.7502 18.4C13.7902 18.46 13.8102 18.49 13.8102 18.49L16.0202 21.55C16.5202 22.25 17.6002 22.12 17.9302 21.33L18.8202 19.2C19.1402 18.43 20.1702 18.28 20.7002 18.93C21.1102 19.44 21.8802 19.48 22.3402 19.02L23.0102 18.35" stroke="#688CBA" stroke-width="1.5" stroke-linejoin="round"/>
<path d="M18.3599 0V9.11" stroke="#688CBA" stroke-width="1.5" stroke-linejoin="round"/>
<path d="M18.3599 4.19H23.5199L22.3699 2.47L23.5199 0.75H18.3599V4.19Z" stroke="#688CBA" stroke-width="1.5" stroke-linejoin="round"/>
</g>
<defs>
<clipPath id="clip0_81_28277">
<rect width="37" height="34.16" fill="white"/>
</clipPath>
</defs>
</svg>
